<svg id="Capa_1" enable-background="new 0 0 512 512" height="512" viewBox="0 0 512 512" width="512" xmlns="http://www.w3.org/2000/svg"><path d="m169.087 371.993v32.18c7.047-1.638 14.386-2.506 21.925-2.506h129.977c7.631 0 15.056.891 22.182 2.569v-32.243z"/><path d="m320.988 430.667h-129.976c-37.371 0-67.775 30.404-67.775 67.775 0 7.486 6.069 13.555 13.555 13.555h238.416c7.486 0 13.555-6.069 13.555-13.555 0-37.372-30.404-67.775-67.775-67.775z"/><path d="m512 326.993v-32.988h-512v32.988c0 8.284 6.716 15 15 15h482c8.284 0 15-6.716 15-15z"/><path d="m512 15.004c0-8.284-6.716-15-15-15h-482c-8.284 0-15 6.716-15 15v249.001h512zm-358.661 149.154-45.563 45.563c-2.813 2.813-6.628 4.393-10.606 4.393-3.979 0-7.793-1.58-10.606-4.394l-21.474-21.473c-5.858-5.858-5.858-15.355 0-21.213s15.355-5.858 21.213 0l10.867 10.867 34.956-34.956c5.857-5.858 15.355-5.858 21.213 0s5.858 15.355 0 21.213zm0-91.004-45.563 45.562c-2.813 2.813-6.628 4.393-10.606 4.393-3.979 0-7.793-1.58-10.606-4.393l-21.474-21.473c-5.858-5.858-5.858-15.355 0-21.213 5.857-5.858 15.355-5.858 21.213 0l10.867 10.866 34.956-34.956c5.857-5.858 15.355-5.858 21.213 0s5.858 15.356 0 21.214zm282.964 123.049h-215.259c-8.284 0-15-6.716-15-15s6.716-15 15-15h215.259c8.284 0 15 6.716 15 15s-6.716 15-15 15zm0-91.004h-215.259c-8.284 0-15-6.716-15-15s6.716-15 15-15h215.259c8.284 0 15 6.716 15 15s-6.716 15-15 15z"/></svg>